# xmcd CD database file
#
# Track frame offsets:
#	150
#	18974
#	36633
#	52669
#	63620
#	73345
#	86483
#	96772
#	108845
#	119461
#	132780
#	148426
#	157421
#	169182
#	181268
#	192010
#	207907
#	220527
#	234341
#	245825
#	258378
#	270283
#
# Disc length: 3802 seconds
#
# Revision: 0
# Processed by: cddbd v1.4PL0 Copyright (c) Steve Scherf et al.
# Submitted via: NeoAudio 9.9.9
#
DISCID=440ed816
DTITLE=Gino and Geno - Bailão do Gino and Geno
DYEAR=1900
DGENRE=Country
TTITLE0=Coração cigano
TTITLE1=Lorota
TTITLE2=Quando ela quer
TTITLE3=Bate coxa
TTITLE4=Procurando treta
TTITLE5=Quatro tipos de mulher
TTITLE6=Vontade de te ver
TTITLE7=Xonado sem quantia
TTITLE8=Churrasco de paixão
TTITLE9=Vazei na braquiara
TTITLE10=Macaco velho
TTITLE11=Vou gastar o barão
TTITLE12=Blusa amarela
TTITLE13=Mulher bicho bom
TTITLE14=Coração batido
TTITLE15=Esquina da saudade
TTITLE16=Vim dizer adeus
TTITLE17=Tem jeito não
TTITLE18=Boi do saco roxo
TTITLE19=Roubando a morena
TTITLE20=Convite de baile
TTITLE21=As águas do São Francisco
EXTD=
EXTT0=
EXTT1=
EXTT2=
EXTT3=
EXTT4=
EXTT5=
EXTT6=
EXTT7=
EXTT8=
EXTT9=
EXTT10=
EXTT11=
EXTT12=
EXTT13=
EXTT14=
EXTT15=
EXTT16=
EXTT17=
EXTT18=
EXTT19=
EXTT20=
EXTT21=
PLAYORDER=
